<svg width="36" height="70" viewBox="0 0 36 70" fill="none" xmlns="http://www.w3.org/2000/svg">
<g clip-path="url(#clip0_1158_9033)">
<path d="M9.50823 42.4453L7.7999 45.1957C5.44423 48.9853 4.19565 53.3583 4.19531 57.8203V63.7482H12.3441V57.1541C12.3454 54.1755 13.2119 51.2615 14.8382 48.7661L18.9553 42.4453H9.50823Z" fill="#00B5EB"/>
<path d="M7.8 45.1957C6.97497 46.5589 6.28822 48.001 5.75 49.5007H14.4454C14.5821 49.2445 14.7358 49.0053 14.8896 48.7661L19.0067 42.4453H9.50833L7.8 45.1957Z" fill="#009FD9"/>
<path d="M9.50823 42.4453L7.7999 45.1957C5.44423 48.9853 4.19565 53.3583 4.19531 57.8203V63.7482H12.3441V57.1541C12.3454 54.1755 13.2119 51.2615 14.8382 48.7661L18.9553 42.4453H9.50823Z" stroke="#009FD9" stroke-linecap="round" stroke-linejoin="round"/>
<path d="M13.25 42.4453L13.5917 44.9224C14.0816 48.4995 15.3751 51.9193 17.3752 54.9252C19.3752 57.9312 22.0298 60.4453 25.14 62.2791L26.5238 63.0991L30.88 55.6336L29.0692 54.5916C27.0745 53.4371 25.3648 51.849 24.0667 49.9447C22.7686 48.0403 21.9151 45.8685 21.5696 43.5899L21.3988 42.4453H13.25Z" fill="#00B5EB"/>
<path d="M21.5696 43.5899L21.3988 42.4453H13.25L13.5917 44.9224C13.7981 46.482 14.1644 48.0162 14.685 49.5007H23.7904C22.6492 47.7053 21.893 45.6926 21.5696 43.5899Z" fill="#009FD9"/>
<path d="M13.25 42.4453L13.5917 44.9224C14.0816 48.4995 15.3751 51.9193 17.3752 54.9252C19.3752 57.9312 22.0298 60.4453 25.14 62.2791L26.5238 63.0991L30.88 55.6336L29.0692 54.5916C27.0745 53.4371 25.3648 51.849 24.0667 49.9447C22.7686 48.0403 21.9151 45.8685 21.5696 43.5899L21.3988 42.4453H13.25Z" stroke="#009FD9" stroke-linecap="round" stroke-linejoin="round"/>
<path d="M6.62109 11.4391C6.62109 13.7136 7.52462 15.8949 9.1329 17.5031C10.7412 19.1114 12.9225 20.0149 15.1969 20.0149C17.4714 20.0149 19.6527 19.1114 21.261 17.5031C22.8692 15.8949 23.7728 13.7136 23.7728 11.4391C23.7728 9.16466 22.8692 6.98337 21.261 5.37508C19.6527 3.7668 17.4714 2.86328 15.1969 2.86328C12.9225 2.86328 10.7412 3.7668 9.1329 5.37508C7.52462 6.98337 6.62109 9.16466 6.62109 11.4391Z" fill="#FFC9AF" stroke="#FFC9AF" stroke-linecap="round" stroke-linejoin="round"/>
<path d="M21.3985 42.4473H9.44019C9.03019 40.739 8.46644 39.4919 9.67935 32.7952C10.6531 27.4823 12.4981 23.1431 15.4535 23.1431C16.3143 23.1113 17.1589 23.383 17.8396 23.9107C18.5204 24.4385 18.994 25.1887 19.1777 26.0302L21.3985 42.4473Z" fill="#FF8D22"/>
<path d="M21.3985 42.4473H9.44019C9.03019 40.739 8.46644 39.4919 9.67935 32.7952C10.6531 27.4823 12.4981 23.1431 15.4535 23.1431C16.3143 23.1113 17.1589 23.383 17.8396 23.9107C18.5204 24.4385 18.994 25.1887 19.1777 26.0302L21.3985 42.4473Z" stroke="#FF7418" stroke-linecap="round" stroke-linejoin="round"/>
<path d="M6.26174 63.7513H12.3434V67.168C12.3434 67.621 12.1634 68.0556 11.8431 68.3759C11.5227 68.6963 11.0882 68.8763 10.6351 68.8763H1.20508C1.20496 67.5288 1.73552 66.2355 2.68192 65.2763C3.62831 64.3171 4.91439 63.7693 6.26174 63.7513ZM27.8107 60.8881L30.8788 55.6367L33.8291 57.3587C34.0229 57.4719 34.1924 57.6221 34.3281 57.8008C34.4637 57.9795 34.5629 58.1832 34.6198 58.4002C34.6768 58.6172 34.6904 58.8433 34.66 59.0656C34.6295 59.2879 34.5556 59.502 34.4424 59.6957L29.6881 67.8393C28.5241 67.1602 27.6744 66.05 27.323 64.749C26.9717 63.448 27.1468 62.0609 27.8107 60.8881Z" fill="#9D3518" stroke="#A43618" stroke-linecap="round" stroke-linejoin="round"/>
<path d="M15.3413 23.1709C16.2402 23.0583 17.147 23.3072 17.8623 23.8631C18.5777 24.4189 19.043 25.236 19.156 26.1348L20.0512 33.2535L13.2708 34.1042L12.3722 26.9514C12.2596 26.0526 12.5086 25.1458 13.0644 24.4304C13.6202 23.7151 14.4374 23.2497 15.3362 23.1367L15.3413 23.1709Z" fill="#FF8D22"/>
<path d="M15.3337 23.16C14.4438 23.2793 13.6368 23.744 13.0869 24.4537C12.537 25.1634 12.2886 26.061 12.3953 26.9525L12.8566 30.5741C12.7392 30.1056 12.7225 29.6175 12.8076 29.1421C12.8926 28.6667 13.0775 28.2147 13.3501 27.8159C13.6226 27.4172 13.9766 27.0807 14.3887 26.8288C14.8007 26.5769 15.2615 26.4152 15.7407 26.3544C16.2198 26.2936 16.7064 26.335 17.1684 26.476C17.6303 26.6171 18.0571 26.8544 18.4206 27.1724C18.7841 27.4905 19.0761 27.882 19.2772 28.3211C19.4783 28.7602 19.584 29.237 19.5874 29.72L19.1262 26.1666C19.0753 25.7199 18.9367 25.2876 18.7184 24.8945C18.5001 24.5015 18.2064 24.1554 17.854 23.876C17.5017 23.5967 17.0977 23.3897 16.6652 23.2668C16.2327 23.1439 15.7802 23.1076 15.3337 23.16Z" fill="#FF7418"/>
<path d="M15.3413 23.1709C16.2402 23.0583 17.147 23.3072 17.8623 23.8631C18.5777 24.4189 19.043 25.236 19.156 26.1348L20.0512 33.2535L13.2708 34.1042L12.3722 26.9514C12.2596 26.0526 12.5086 25.1458 13.0644 24.4304C13.6202 23.7151 14.4374 23.2497 15.3362 23.1367L15.3413 23.1709Z" stroke="#FF7418" stroke-linecap="round" stroke-linejoin="round"/>
<path d="M19.1604 2.25104C16.687 1.19535 13.9079 1.10393 11.3704 1.99479C10.5875 2.35998 9.71068 2.47393 8.86038 2.321C8.01007 2.16807 7.22793 1.75575 6.62128 1.14062C6.62128 1.14063 3.46086 6.57312 7.15086 8.55479C9.94871 9.42881 12.9605 9.32641 15.6925 8.26438L15.2654 11.2198C15.2654 11.2198 17.2129 10.1094 18.2721 11.3052C19.3313 12.501 18.7846 15.8494 16.5638 15.5248C16.4696 16.2828 16.5673 17.0522 16.8479 17.7626C17.1285 18.473 17.5829 19.1016 18.1696 19.5906C19.6283 19.0631 20.9158 18.1483 21.8939 16.9444C22.8721 15.7406 23.5039 14.2931 23.7217 12.7573C24.3709 7.99104 23.38 4.62563 19.1604 2.25104Z" fill="#FEB173"/>
<path d="M6.12566 5.66813C6.17219 5.55364 6.24399 5.45116 6.33569 5.36833C6.4274 5.2855 6.53664 5.22446 6.65525 5.18979C6.76507 5.13921 6.88455 5.11301 7.00546 5.11301C7.12637 5.11301 7.24584 5.13921 7.35567 5.18979C7.96335 5.53019 8.64023 5.72854 9.33552 5.76996C10.0308 5.81138 10.7265 5.6948 11.3702 5.42896C13.9096 4.54184 16.6893 4.63938 19.1602 5.70229C20.375 6.31052 21.4271 7.19971 22.2293 8.29604C23.0315 9.39237 23.5606 10.6642 23.7727 12.006C24.2852 7.61563 23.209 4.42104 19.1602 2.06354C16.6868 1.00785 13.9077 0.91643 11.3702 1.80729C10.5873 2.17248 9.71048 2.28643 8.86018 2.1335C8.00988 1.98057 7.22773 1.56825 6.62108 0.953125C6.62108 0.953125 4.60525 4.36979 5.6815 6.82979C5.74983 6.47104 5.989 6.04396 6.12566 5.66813Z" fill="#FFDAAB"/>
<path d="M19.1604 2.25104C16.687 1.19535 13.9079 1.10393 11.3704 1.99479C10.5875 2.35998 9.71068 2.47393 8.86038 2.321C8.01007 2.16807 7.22793 1.75575 6.62128 1.14062C6.62128 1.14063 3.46086 6.57312 7.15086 8.55479C9.94871 9.42881 12.9605 9.32641 15.6925 8.26438L15.2654 11.2198C15.2654 11.2198 17.2129 10.1094 18.2721 11.3052C19.3313 12.501 18.7846 15.8494 16.5638 15.5248C16.4696 16.2828 16.5673 17.0522 16.8479 17.7626C17.1285 18.473 17.5829 19.1016 18.1696 19.5906C19.6283 19.0631 20.9158 18.1483 21.8939 16.9444C22.8721 15.7406 23.5039 14.2931 23.7217 12.7573C24.3709 7.99104 23.38 4.62563 19.1604 2.25104Z" stroke="#FEB173" stroke-linecap="round" stroke-linejoin="round"/>
<path d="M13.6591 34.0261L13.8641 35.7344C14.0385 37.18 13.9105 38.646 13.4883 40.0394L12.0362 44.7032C11.8401 45.3832 11.9069 46.112 12.2234 46.745C12.5399 47.378 13.0829 47.8688 13.7445 48.1198C14.1039 48.2531 14.4867 48.3116 14.8695 48.2919C15.2523 48.2721 15.627 48.1745 15.9708 48.005C16.3146 47.8356 16.6202 47.5977 16.8689 47.3061C17.1177 47.0145 17.3043 46.6752 17.4175 46.309L18.8695 41.5428C19.5543 39.2278 19.7406 36.7941 19.4162 34.4019V33.3086L13.6591 34.0261Z" fill="#FFC9AF"/>
<path d="M13.8652 35.6661C13.8992 36.1096 13.8992 36.5551 13.8652 36.9986L19.5539 36.2811C19.543 35.6527 19.4974 35.0253 19.4173 34.4019V33.3086L13.7285 34.0261L13.8652 35.6661Z" fill="#FFC9AF"/>
<path d="M13.6591 34.0261L13.8641 35.7344C14.0385 37.18 13.9105 38.646 13.4883 40.0394L12.0362 44.7032C11.8401 45.3832 11.9069 46.112 12.2234 46.745C12.5399 47.378 13.0829 47.8688 13.7445 48.1198C14.1039 48.2531 14.4867 48.3116 14.8695 48.2919C15.2523 48.2721 15.627 48.1745 15.9708 48.005C16.3146 47.8356 16.6202 47.5977 16.8689 47.3061C17.1177 47.0145 17.3043 46.6752 17.4175 46.309L18.8695 41.5428C19.5543 39.2278 19.7406 36.7941 19.4162 34.4019V33.3086L13.6591 34.0261Z" stroke="#FFC9AF" stroke-linecap="round" stroke-linejoin="round"/>
</g>
<defs>
<clipPath id="clip0_1158_9033">
<rect width="36" height="70" fill="white"/>
</clipPath>
</defs>
</svg>
