<svg width="40" height="40" viewBox="0 0 40 40" fill="none" xmlns="http://www.w3.org/2000/svg">
<path d="M18.6672 5.14088C18.0368 4.91688 17.7072 4.49928 17.5872 3.86088C17.3792 2.73981 17.3669 1.75741 17.5504 0.91368C17.8096 -0.26872 19.0992 0.10088 19.352 1.01288C19.6336 2.03048 19.7674 3.05288 19.7536 4.08008C19.7488 4.38888 19.6592 4.78568 19.4032 4.99368C19.1696 5.18248 18.9242 5.23155 18.6672 5.14088Z" fill="white"/>
<path d="M15.1023 5.09592C15.1871 5.57272 15.0847 6.09912 14.7647 6.47192C14.5119 6.76632 13.8351 6.55192 13.5567 6.39992C12.3045 5.71618 11.3743 4.76205 10.7663 3.53752C10.0463 2.08792 11.0047 0.502318 12.6383 1.67192C13.7807 2.48952 14.8559 3.70872 15.1023 5.09592Z" fill="white"/>
<path d="M23.2417 5.6977C22.7473 4.5089 23.9073 2.2321 25.0353 1.8145C25.5041 1.6401 25.9345 2.0977 26.0545 2.5009C26.2177 3.0497 26.1505 3.6225 26.0369 4.1729C25.8625 5.0193 25.1521 5.9649 24.2353 6.1889C23.7574 6.30517 23.4262 6.14144 23.2417 5.6977Z" fill="white"/>
<path d="M29.6595 8.04393C30.5986 7.37162 31.1555 6.54119 30.9035 6.18913C30.6514 5.83706 29.6858 6.09668 28.7467 6.76899C27.8077 7.44131 27.2507 8.27173 27.5028 8.6238C27.7548 8.97586 28.7204 8.71625 29.6595 8.04393Z" fill="white"/>
<path d="M9.06003 9.46733C10.2813 10.0816 11.4821 10.1603 11.7422 9.64323C12.0023 9.12615 11.2231 8.20905 10.0018 7.59482C8.78055 6.98059 7.5797 6.90184 7.31964 7.41892C7.05958 7.936 7.83878 8.8531 9.06003 9.46733Z" fill="white"/>
<path d="M31.2022 12.4187C32.1556 12.1596 32.83 11.5874 32.7086 11.1406C32.5872 10.6938 31.716 10.5415 30.7626 10.8005C29.8092 11.0596 29.1348 11.6318 29.2562 12.0786C29.3776 12.5254 30.2489 12.6777 31.2022 12.4187Z" fill="white"/>
<path d="M30.9286 16.4171C31.8264 16.5369 32.5998 16.2925 32.656 15.8712C32.7122 15.4499 32.03 15.0113 31.1322 14.8915C30.2344 14.7717 29.461 15.0161 29.4048 15.4374C29.3486 15.8587 30.0308 16.2973 30.9286 16.4171Z" fill="white"/>
<path d="M8.97768 26.632L6.52168 28.1632C5.01448 26.0373 3.86088 23.8218 3.06088 21.5168C2.86354 20.9493 2.77714 20.4053 2.80168 19.8848C2.80409 19.8399 2.81727 19.7962 2.84011 19.7575C2.86295 19.7188 2.89476 19.6862 2.93288 19.6624C3.61128 19.2384 4.89928 21.1024 5.17768 21.56C6.01288 22.9296 6.78994 24.104 7.50888 25.0832C7.88754 25.5984 8.37714 26.1146 8.97768 26.632Z" fill="white"/>
<path d="M20.4801 30.5599C20.4993 30.7039 20.5601 31.1199 20.5601 31.2799C20.5601 31.4399 20.6678 31.8837 20.7233 32.0416C21.0577 33.0016 22.5329 37.008 20.6545 37.1616C19.6081 37.2464 18.2689 36.3888 17.4145 35.7424C17.3944 35.7273 17.3778 35.708 17.3659 35.6856C17.354 35.6632 17.3471 35.6383 17.3457 35.6128C17.3073 34.9493 17.2406 34.3285 17.1457 33.7504C17.0033 32.888 16.0977 32.4528 15.2961 32.2512C14.2017 31.9776 13.0641 31.8816 11.9393 31.8176C10.4673 31.7344 9.41768 31.3712 8.40168 30.36C7.59741 29.5589 6.97074 28.8266 6.52168 28.1632L8.97768 26.632C10.1734 27.7285 11.5798 28.3504 13.1969 28.4976C13.6577 28.5392 14.1451 28.4885 14.6593 28.3456C14.6798 28.3398 14.6988 28.3295 14.7148 28.3153C14.7308 28.3011 14.7434 28.2835 14.7515 28.2638C14.7597 28.2441 14.7633 28.2227 14.762 28.2014C14.7607 28.1801 14.7546 28.1594 14.7441 28.1408C14.5894 27.8634 14.3723 27.6618 14.0929 27.536C14.0929 27.536 11.9537 25.7999 11.8401 25.6799C11.7265 25.56 11.4475 25.3162 11.3121 25.1328C11.1489 24.912 11.1281 24.6272 11.3601 24.4496C11.6758 24.2064 12.0566 24.1952 12.5025 24.416C14.4907 25.4016 16.4881 26.5541 18.4945 27.8736C19.1729 28.3205 19.6353 28.6805 19.8817 28.9536C20.1803 29.2864 20.3553 29.6213 20.4065 29.9584C20.4523 30.2688 20.4609 30.416 20.4801 30.5599Z" fill="white"/>
<path d="M37.5457 22.5057C37.4337 22.5195 37.327 22.5675 37.2257 22.6497C37.1862 22.6827 37.1409 22.6966 37.0897 22.6913C37.0268 22.6849 36.982 22.7041 36.9553 22.7489C36.6417 22.8843 36.342 23.0427 36.0561 23.2241C35.9537 23.2891 35.8572 23.3334 35.7665 23.3569C35.662 23.3835 35.5569 23.4038 35.4513 23.4177C35.7756 22.5985 36.1926 21.8497 36.7025 21.1713C36.8289 21.0033 37.0641 20.8609 37.2385 20.7905C37.2847 20.7716 37.335 20.7649 37.3846 20.771C37.4341 20.777 37.4814 20.7956 37.5218 20.8251C37.5623 20.8545 37.5947 20.8938 37.6159 20.9392C37.6372 20.9847 37.6466 21.0348 37.6433 21.0849C37.6433 21.0849 37.5999 22.4 37.5457 22.5057Z" fill="white"/>
<path d="M37.5457 22.5057C37.4688 22.8512 37.4258 23.0449 37.3489 23.3905C37.0513 23.3414 36.7078 23.4966 36.3185 23.8561C35.9644 24.1835 35.5009 24.3985 34.9281 24.5009L35.2929 23.7137C35.5585 23.6475 35.8081 23.5414 36.0417 23.3953C36.2049 23.2929 36.3724 23.2059 36.5441 23.1345C36.7201 23.0609 36.8892 22.9702 37.0513 22.8625C37.0556 22.8593 37.0582 22.855 37.0593 22.8497C37.0614 22.8454 37.063 22.8406 37.0641 22.8353C37.0673 22.815 37.0604 22.8107 37.0433 22.8225C36.9676 22.8715 36.8849 22.8982 36.7953 22.9025C36.7502 22.9056 36.7066 22.9205 36.6689 22.9457C36.5462 23.0278 36.4166 23.0971 36.2801 23.1537C36.1105 23.2241 35.9612 23.3254 35.8321 23.4577C35.7916 23.4982 35.743 23.5217 35.6865 23.5281C35.5745 23.5409 35.4817 23.527 35.4081 23.4865L35.4513 23.4177C35.5569 23.4038 35.662 23.3835 35.7665 23.3569C35.8572 23.3334 35.9537 23.2891 36.0561 23.2241C36.342 23.0427 36.6417 22.8843 36.9553 22.7489C36.982 22.7041 37.0268 22.6849 37.0897 22.6913C37.1409 22.6966 37.1862 22.6827 37.2257 22.6497C37.327 22.5675 37.4337 22.5195 37.5457 22.5057Z" fill="white"/>
<path d="M35.2929 23.7137L35.4081 23.4865C35.4817 23.527 35.5745 23.5409 35.6865 23.5281C35.743 23.5217 35.7916 23.4982 35.8321 23.4577C35.9612 23.3254 36.1105 23.2241 36.2801 23.1537C36.4166 23.0971 36.5462 23.0278 36.6689 22.9457C36.7066 22.9205 36.7502 22.9056 36.7953 22.9025C36.8849 22.8982 36.9676 22.8715 37.0433 22.8225C37.0604 22.8107 37.0673 22.815 37.0641 22.8353C37.063 22.8406 37.0614 22.8454 37.0593 22.8497C37.0582 22.855 37.0556 22.8593 37.0513 22.8625C36.8892 22.9702 36.7201 23.0609 36.5441 23.1345C36.3724 23.2059 36.2049 23.2929 36.0417 23.3953C35.8081 23.5414 35.5585 23.6475 35.2929 23.7137Z" fill="white"/>
<path d="M37.3489 23.3905C36.7889 25.5121 35.9868 27.5361 34.9425 29.4625C34.518 30.2454 34.0108 30.9915 33.4209 31.7009C32.8705 32.3643 32.1713 32.7782 31.3233 32.9425C30.7334 33.0555 30.1126 33.1686 29.4609 33.2817C28.4321 33.4593 26.6481 33.8785 26.4705 35.1457C26.3382 36.1035 26.343 36.9595 26.4849 37.7137C26.4893 37.7377 26.4874 37.7623 26.4796 37.7853C26.4717 37.8083 26.4581 37.8288 26.4401 37.8449C25.3969 38.7729 21.9089 41.5345 22.0993 37.7921C22.1548 36.6913 22.3857 35.5035 22.7921 34.2289C22.9062 33.8705 23.0429 33.2624 23.0399 33.04C23.0369 32.8177 23.1053 31.9856 23.1199 31.76C23.1345 31.5345 23.1532 31.3339 23.2193 31.0577C23.3036 30.7046 23.5036 30.3585 23.8193 30.0193C24.0604 30.0779 24.287 29.9995 24.4993 29.7841C24.5292 29.7542 24.5649 29.7393 24.6065 29.7393H24.6849C24.7393 29.7393 24.7868 29.7217 24.8273 29.6865C24.9702 29.5606 25.134 29.4721 25.3185 29.4209C25.3688 29.4072 25.4147 29.3801 25.4513 29.3425C25.319 29.3585 25.5473 29.2454 25.4513 29.3425L23.9041 30.2145C23.886 30.2241 23.878 30.2395 23.8801 30.2609C23.8812 30.2843 23.8876 30.2945 23.8993 30.2913C24.1873 30.2113 24.0769 30.3606 24.3393 30.1857C24.3937 30.1494 24.7958 29.8854 24.7745 29.9473C24.7745 29.9473 25.1761 29.9083 25.3617 29.7825C25.6945 29.5563 26.0102 29.3654 26.3089 29.2097C26.5148 29.103 26.7094 28.9894 26.8929 28.8689C27.102 28.7323 27.3137 28.6145 27.5281 28.5153C27.7702 28.4033 28.03 28.2699 28.3073 28.1153C29.2278 27.6022 30.1462 27.0907 31.0625 26.5809C31.2385 26.4827 31.4188 26.3862 31.6033 26.2913C31.7868 26.1953 31.9601 26.0843 32.1233 25.9585C32.3199 26.24 32.2529 26.4811 32.0769 26.7201C31.9158 26.9409 31.7308 27.1409 31.5217 27.3201C30.887 27.8651 30.223 28.3969 29.5297 28.9153L28.2097 29.8241C27.9974 29.9691 28.0198 30.0406 28.2769 30.0385C30.1681 30.0235 31.7393 29.2753 32.9905 27.7937C33.6924 26.9627 34.3382 25.8651 34.9281 24.5009C35.5009 24.3985 35.9644 24.1835 36.3185 23.8561C36.7078 23.4966 37.0513 23.3414 37.3489 23.3905Z" fill="white"/>
<path d="M32.1233 25.9585C31.9601 26.0843 31.7868 26.1953 31.6033 26.2913C31.4188 26.3862 31.2385 26.4827 31.0625 26.5809C30.1462 27.0907 29.2278 27.6022 28.3073 28.1153C28.03 28.2699 27.7702 28.4033 27.5281 28.5153C27.3137 28.6145 27.102 28.7323 26.8929 28.8689C26.7094 28.9894 26.5148 29.103 26.3089 29.2097C26.0102 29.3654 25.6945 29.5563 25.3617 29.7825C25.1761 29.9083 24.7745 29.9473 24.7745 29.9473C24.7958 29.8854 24.3937 30.1494 24.3393 30.1857C24.0769 30.3606 24.1873 30.2113 23.8993 30.2913C23.8876 30.2945 23.8812 30.2843 23.8801 30.2609C23.878 30.2395 23.886 30.2241 23.9041 30.2145L25.4513 29.3425C25.6518 29.1505 25.8769 29.0027 26.1265 28.8993C26.214 28.8641 26.6364 28.6475 26.7089 28.5889C26.7622 28.5441 26.8236 28.5067 26.8929 28.4769C27.2342 28.3275 27.5772 28.1803 27.9217 28.0353C27.9772 28.0118 28.022 27.975 28.0561 27.9249C28.103 27.8545 28.1713 27.8086 28.2609 27.7873C28.3377 27.7691 28.4049 27.7334 28.4625 27.6801C28.7782 27.3889 29.119 27.1766 29.4849 27.0433C29.5361 27.0251 29.5793 26.9958 29.6145 26.9553C29.686 26.8763 29.7745 26.8262 29.8801 26.8049C29.9369 26.7943 29.9912 26.7702 30.0385 26.7345C30.2444 26.5755 30.4625 26.4406 30.6929 26.3297C30.7409 26.3062 30.783 26.2742 30.8193 26.2337C30.8854 26.159 30.8908 26.103 30.8353 26.0657C31.2001 25.9057 31.8225 25.6209 32.1233 25.9585Z" fill="white"/>
<path d="M30.8353 26.0657C30.8908 26.103 30.8854 26.159 30.8193 26.2337C30.783 26.2742 30.7409 26.3062 30.6929 26.3297C30.4625 26.4406 30.2444 26.5755 30.0385 26.7345C29.9912 26.7702 29.9369 26.7943 29.8801 26.8049C29.7745 26.8262 29.686 26.8763 29.6145 26.9553C29.5793 26.9958 29.5361 27.0251 29.4849 27.0433C29.119 27.1766 28.7782 27.3889 28.4625 27.6801C28.4049 27.7334 28.3377 27.7691 28.2609 27.7873C28.1713 27.8086 28.103 27.8545 28.0561 27.9249C28.022 27.975 27.9772 28.0118 27.9217 28.0353C27.5772 28.1803 27.2342 28.3275 26.8929 28.4769C26.8236 28.5067 26.7622 28.5441 26.7089 28.5889C26.6364 28.6475 26.214 28.8641 26.1265 28.8993C25.8769 29.0027 25.6518 29.1505 25.4513 29.3425C25.319 29.3585 25.5473 29.2454 25.4513 29.3425C25.4147 29.3801 25.3688 29.4072 25.3185 29.4209C25.134 29.4721 24.9702 29.5606 24.8273 29.6865C24.7868 29.7217 24.7393 29.7393 24.6849 29.7393H24.6065C24.5649 29.7393 24.5292 29.7542 24.4993 29.7841C24.287 29.9995 24.0604 30.0779 23.8193 30.0193C24.1862 29.6737 24.6284 29.3425 25.1457 29.0257C27.0529 27.8598 28.9494 26.8731 30.8353 26.0657Z" fill="white"/>
<path fill-rule="evenodd" clip-rule="evenodd" d="M28.0589 16.8671C27.9999 17.1405 27.6379 18.1542 27.5104 18.4031C27.1446 19.105 26.7216 19.7364 26.2416 20.2975C26.2416 20.2975 25.2799 21.1199 24.5025 21.5615C22.3473 22.5583 20.0353 22.4639 17.8305 21.7455C16.9377 21.4543 16.1292 21.0469 15.4049 20.5231C13.3537 19.0405 12.1537 16.961 11.8049 14.2847H11.8052C11.8047 13.1999 11.9293 12.2495 11.9293 12.2495C12.1522 11.0495 12.5314 10.001 13.0669 9.10395C14.1853 7.23195 16.2493 6.21275 18.3501 5.96795C20.7853 5.68421 23.0258 6.12848 25.0717 7.30075C26.2621 7.98235 27.1229 9.21915 27.6285 10.5407C28.3944 12.5386 28.5378 14.6474 28.0589 16.8671ZM17.3316 13.1313C18.3407 13.1313 19.1587 12.305 19.1587 11.2856C19.1587 10.2663 18.3407 9.43993 17.3316 9.43993C16.3225 9.43993 15.5045 10.2663 15.5045 11.2856C15.5045 12.305 16.3225 13.1313 17.3316 13.1313ZM16.986 15.8655L16.588 15.4805C16.5835 15.4762 16.5777 15.4701 16.5707 15.4628C16.5306 15.4206 16.4509 15.3369 16.3608 15.3223C16.2551 15.3051 15.3892 15.088 14.9368 14.8722C14.5621 14.6939 14.1752 14.4949 13.7762 14.2749C13.3505 14.0174 12.9543 13.701 12.5877 13.3257C12.3343 13.0657 12.2013 12.8335 12.4602 12.6291C12.5852 12.5296 12.8867 12.5849 13.1011 12.6242L13.1282 12.6291C13.2951 12.6596 13.4683 12.7292 13.632 12.795C13.7318 12.8351 13.8281 12.8738 13.9173 12.9014C14.3773 13.1134 14.8203 13.2309 15.2703 13.3501C15.5265 13.418 15.7849 13.4865 16.05 13.5734C17.1766 13.943 18.1499 13.719 18.9697 12.9014C19.5947 12.2785 20.0809 11.4831 20.5532 10.7105C20.6993 10.4715 20.844 10.2348 20.9911 10.0059C21.0688 9.88412 21.1659 9.78355 21.2824 9.70425C21.3124 9.68382 21.3468 9.67104 21.3827 9.66699C21.4186 9.66295 21.455 9.66776 21.4886 9.68103C21.5223 9.69429 21.5523 9.71561 21.576 9.74315C21.5997 9.77069 21.6165 9.80363 21.6248 9.83915C21.6964 10.1445 21.6855 10.4744 21.6102 10.7785C21.4694 11.3468 21.2889 11.9236 21.0688 12.509C20.9425 12.845 20.8345 13.219 20.7677 13.5661C20.6815 14.0113 20.9316 14.3203 21.331 14.6379C21.7441 14.9235 22.2952 15.096 22.7985 15.2536L22.7986 15.2536L22.799 15.2537C22.8733 15.277 22.9465 15.2999 23.0181 15.3228C24.0776 15.6613 25.1548 15.9471 26.2499 16.1801C26.5161 16.252 26.786 16.3309 27.0596 16.4168C27.2733 16.4846 27.5334 16.6142 27.5941 16.6755C27.6548 16.7368 27.7155 16.7982 27.6548 16.9208C27.5941 17.0434 27.1085 17.1661 27.1085 17.1661C27.1085 17.1661 26.4485 17.3157 25.8334 17.3574C25.4846 17.3844 25.2645 17.3958 25.173 17.3917C23.7805 17.3292 22.6236 17.0447 21.3513 16.5504C21.2728 16.5202 21.1951 16.5136 21.1182 16.5308C21.1022 16.5344 21.0873 16.5418 21.0746 16.5523C21.0619 16.5628 21.0518 16.5761 21.0451 16.5912C21.0383 16.6063 21.0352 16.6228 21.0359 16.6394C21.0366 16.6559 21.0411 16.6721 21.049 16.6866C21.1599 16.8901 21.3129 17.0561 21.5079 17.1845C21.7013 17.3112 21.9162 17.4297 22.1525 17.5401C23.0533 17.9595 23.9594 18.3826 24.8707 18.8094C25.0617 18.9034 25.2523 19.0118 25.4425 19.1344C25.4439 19.1357 25.4528 19.1411 25.4674 19.1499C25.5622 19.2069 25.8945 19.4066 25.8945 19.5575C25.8945 19.7073 25.7147 19.7355 25.4905 19.7707C25.4541 19.7764 25.4166 19.7823 25.3784 19.7889C25.1052 19.8364 24.1709 19.8748 23.7699 19.7889C23.369 19.7031 23.0056 19.6078 22.7523 19.5317C21.8045 19.248 20.9138 18.8364 20.0802 18.2968C18.9941 17.5945 17.869 16.8336 16.986 15.8655Z" fill="white"/>
</svg>
