<svg width="87" height="14" viewBox="0 0 87 14" fill="none" xmlns="http://www.w3.org/2000/svg">
<path fill-rule="evenodd" clip-rule="evenodd" d="M25.714 0.306641H16.3347L15.0156 1.66161V12.37L16.3347 13.6918H25.714L27.0373 12.37V1.66403L25.714 0.306641ZM24.3743 11.0144H17.6955V2.98584H24.3743V11.0144ZM11.0166 13.6924H1.63732L0.316406 12.373V1.66463L1.63732 0.307244H11.0166L12.3369 1.66463V4.32272H9.67636V2.98403H2.99629V11.015H9.67636V9.69559H12.3369V12.373L11.0166 13.6924ZM36.3985 0.306641H44.417L45.7572 1.66403V12.3724L44.417 13.6942H36.3985L35.0588 12.3724V8.35689H32.3959V13.6936H29.716V0.306641H32.3959V5.67709H35.0588V1.66161L36.3985 0.306641ZM37.7387 11.0144H43.0979V2.98584H37.7387V11.0144ZM59.1349 13.6924H49.7556L48.4353 12.373V9.69559H51.1146V11.015H57.7952V8.3575H53.7757V5.68011H57.7952V2.98403H51.1146V4.32272H48.4353V1.66463L49.7556 0.307244H59.1349L60.4558 1.66463V5.68011L59.1349 7.0188L60.4558 8.3575V12.373L59.1349 13.6924ZM85.3635 0.306641H64.4548L63.1357 1.66161V12.37L64.4548 13.6936H85.3647L86.6875 12.3718V1.66403L85.3635 0.306641ZM67.4276 9.42121H65.8125V11.0349H67.4276V9.42121ZM65.8125 2.96774H72.2619L73.0591 3.78723V7.82141L72.2619 8.62824H65.8125V2.96774ZM67.4282 7.01155H71.4537V4.58141H67.4282V7.01155ZM83.2164 2.96774H75.1501L74.3547 3.78422V9.0413L75.1501 9.83548H78.3802V11.0355H79.9959V9.83427H83.2164L84.0239 9.0401V3.78422L83.2164 2.96774ZM78.3802 8.22181H75.9703V4.58141H78.3802V8.22181ZM82.4191 8.22181H79.9959V4.58141H82.4191V8.22181Z" fill="white"/>
</svg>
