<svg width="80" height="80" viewBox="0 0 80 80" fill="none" xmlns="http://www.w3.org/2000/svg">
<path d="M37.3343 10.2818C36.0735 9.83376 35.4143 8.99856 35.1743 7.72176C34.7583 5.47963 34.7338 3.51483 35.1007 1.82736C35.6191 -0.537439 38.1983 0.201761 38.7039 2.02576C39.2671 4.06096 39.5349 6.10576 39.5071 8.16016C39.4975 8.77776 39.3183 9.57136 38.8063 9.98736C38.3391 10.365 37.8485 10.4631 37.3343 10.2818Z" fill="white"/>
<path d="M30.2047 10.1918C30.3743 11.1454 30.1695 12.1982 29.5295 12.9438C29.0239 13.5326 27.6703 13.1038 27.1135 12.7998C24.6089 11.4324 22.7487 9.5241 21.5327 7.07504C20.0927 4.17584 22.0095 1.00464 25.2767 3.34384C27.5615 4.97904 29.7119 7.41744 30.2047 10.1918Z" fill="white"/>
<path d="M46.4834 11.3954C45.4946 9.01781 47.8146 4.46421 50.0706 3.62901C51.0082 3.28021 51.869 4.19541 52.109 5.00181C52.4354 6.09941 52.301 7.24501 52.0738 8.34581C51.725 10.0386 50.3042 11.9298 48.4706 12.3778C47.5149 12.6103 46.8525 12.2829 46.4834 11.3954Z" fill="white"/>
<path d="M59.319 16.0879C61.1972 14.7432 62.3111 13.0824 61.807 12.3783C61.3029 11.6741 59.3716 12.1934 57.4935 13.538C55.6153 14.8826 54.5014 16.5435 55.0055 17.2476C55.5097 17.9517 57.4409 17.4325 59.319 16.0879Z" fill="white"/>
<path d="M18.1201 18.9347C20.5626 20.1631 22.9642 20.3206 23.4844 19.2865C24.0045 18.2523 22.4461 16.4181 20.0036 15.1896C17.5611 13.9612 15.1594 13.8037 14.6393 14.8378C14.1192 15.872 15.6776 17.7062 18.1201 18.9347Z" fill="white"/>
<path d="M62.4045 24.8373C64.3112 24.3193 65.6601 23.1749 65.4173 22.2812C65.1745 21.3875 63.4319 21.083 61.5252 21.6011C59.6185 22.1191 58.2696 23.2635 58.5124 24.1572C58.7552 25.0509 60.4977 25.3554 62.4045 24.8373Z" fill="white"/>
<path d="M61.8572 32.8343C63.6528 33.0739 65.1996 32.585 65.312 31.7424C65.4244 30.8998 64.06 30.0225 62.2644 29.7829C60.4688 29.5433 58.922 30.0322 58.8096 30.8748C58.6972 31.7174 60.0617 32.5947 61.8572 32.8343Z" fill="white"/>
<path d="M17.9554 53.2639L13.0434 56.3263C10.029 52.0746 7.72175 47.6436 6.12175 43.0335C5.72709 41.8986 5.55429 40.8106 5.60335 39.7695C5.60818 39.6798 5.63455 39.5925 5.68022 39.5151C5.72589 39.4376 5.78953 39.3724 5.86575 39.3247C7.22255 38.4767 9.79855 42.2047 10.3554 43.1199C12.0258 45.8591 13.5799 48.2079 15.0178 50.1663C15.7751 51.1967 16.7543 52.2292 17.9554 53.2639Z" fill="white"/>
<path d="M40.9602 61.1199C40.9987 61.4078 41.1202 62.2399 41.1202 62.5599C41.1202 62.8799 41.3356 63.7674 41.4466 64.0831C42.1154 66.0031 45.0658 74.0159 41.309 74.3231C39.2162 74.4927 36.5378 72.7775 34.829 71.4847C34.7888 71.4547 34.7556 71.4159 34.7319 71.3712C34.7081 71.3264 34.6943 71.2767 34.6914 71.2255C34.6146 69.8986 34.4812 68.657 34.2914 67.5007C34.0066 65.7759 32.1954 64.9055 30.5922 64.5023C28.4034 63.9551 26.1282 63.7631 23.8786 63.6351C20.9346 63.4687 18.8354 62.7423 16.8034 60.7199C15.1948 59.1178 13.9415 57.6532 13.0434 56.3263L17.9554 53.2639C20.3468 55.457 23.1596 56.7007 26.3938 56.9951C27.3154 57.0783 28.2903 56.977 29.3186 56.6911C29.3597 56.6796 29.3977 56.659 29.4297 56.6306C29.4616 56.6023 29.4867 56.5671 29.5031 56.5276C29.5194 56.4881 29.5266 56.4455 29.524 56.4028C29.5214 56.3602 29.5091 56.3187 29.4882 56.2815C29.1788 55.7268 28.7447 55.3237 28.1858 55.0719C28.1858 55.0719 23.9075 51.5999 23.6802 51.3599C23.453 51.1199 22.8951 50.6324 22.6242 50.2655C22.2978 49.8239 22.2562 49.2543 22.7202 48.8991C23.3516 48.4127 24.1132 48.3903 25.005 48.8319C28.9815 50.8031 32.9762 53.1082 36.989 55.7471C38.3458 56.641 39.2705 57.361 39.7634 57.9071C40.3607 58.5727 40.7106 59.2426 40.813 59.9167C40.9047 60.5375 40.9218 60.8319 40.9602 61.1199Z" fill="white"/>
<path d="M75.0914 45.0113C74.8674 45.039 74.6541 45.135 74.4514 45.2993C74.3725 45.3654 74.2818 45.3932 74.1794 45.3825C74.0535 45.3697 73.9639 45.4081 73.9106 45.4977C73.2834 45.7686 72.6839 46.0854 72.1122 46.4481C71.9074 46.5782 71.7143 46.6668 71.533 46.7137C71.3239 46.767 71.1138 46.8076 70.9026 46.8353C71.5511 45.1969 72.3853 43.6993 73.405 42.3425C73.6578 42.0065 74.1282 41.7217 74.477 41.5809C74.5695 41.5432 74.67 41.5298 74.7691 41.5419C74.8683 41.554 74.9627 41.5913 75.0437 41.6502C75.1246 41.709 75.1894 41.7876 75.2319 41.8785C75.2744 41.9694 75.2932 42.0696 75.2866 42.1697C75.2866 42.1697 75.1998 44.8001 75.0914 45.0113Z" fill="white"/>
<path d="M75.0914 45.0113C74.9377 45.7024 74.8515 46.0898 74.6978 46.7809C74.1026 46.6828 73.4157 46.9932 72.637 47.7121C71.9287 48.367 71.0018 48.7969 69.8562 49.0017L70.5858 47.4273C71.117 47.295 71.6162 47.0828 72.0834 46.7905C72.4098 46.5857 72.7447 46.4118 73.0882 46.2689C73.4402 46.1217 73.7783 45.9404 74.1026 45.7249C74.1111 45.7185 74.1165 45.71 74.1186 45.6993C74.1229 45.6908 74.1261 45.6812 74.1282 45.6705C74.1346 45.63 74.1207 45.6214 74.0866 45.6449C73.9351 45.743 73.7698 45.7964 73.5906 45.8049C73.5004 45.8112 73.4132 45.8409 73.3378 45.8913C73.0925 46.0556 72.8333 46.1942 72.5602 46.3073C72.221 46.4481 71.9223 46.6508 71.6642 46.9153C71.5831 46.9964 71.4861 47.0433 71.373 47.0561C71.149 47.0817 70.9634 47.054 70.8162 46.9729L70.9026 46.8353C71.1138 46.8076 71.3239 46.767 71.533 46.7137C71.7143 46.6668 71.9074 46.5782 72.1122 46.4481C72.6839 46.0854 73.2834 45.7686 73.9106 45.4977C73.9639 45.4081 74.0535 45.3697 74.1794 45.3825C74.2818 45.3932 74.3725 45.3654 74.4514 45.2993C74.6541 45.135 74.8674 45.039 75.0914 45.0113Z" fill="white"/>
<path d="M70.5858 47.4273L70.8162 46.9729C70.9634 47.054 71.149 47.0817 71.373 47.0561C71.4861 47.0433 71.5831 46.9964 71.6642 46.9153C71.9223 46.6508 72.221 46.4481 72.5602 46.3073C72.8333 46.1942 73.0925 46.0556 73.3378 45.8913C73.4132 45.8409 73.5004 45.8112 73.5906 45.8049C73.7698 45.7964 73.9351 45.743 74.0866 45.6449C74.1207 45.6214 74.1346 45.63 74.1282 45.6705C74.1261 45.6812 74.1229 45.6908 74.1186 45.6993C74.1165 45.71 74.1111 45.7185 74.1026 45.7249C73.7783 45.9404 73.4402 46.1217 73.0882 46.2689C72.7447 46.4118 72.4098 46.5857 72.0834 46.7905C71.6162 47.0828 71.117 47.295 70.5858 47.4273Z" fill="white"/>
<path d="M74.6978 46.7809C73.5778 51.0241 71.9735 55.0721 69.885 58.9249C69.0359 60.4908 68.0215 61.983 66.8418 63.4017C65.741 64.7286 64.3426 65.5564 62.6466 65.8849C61.4669 66.111 60.2253 66.3372 58.9218 66.5633C56.8642 66.9185 53.2962 67.7569 52.941 70.2913C52.6765 72.207 52.6861 73.919 52.9698 75.4273C52.9785 75.4753 52.9749 75.5247 52.9592 75.5706C52.9435 75.6166 52.9163 75.6576 52.8802 75.6897C50.7938 77.5457 43.8178 83.0689 44.1986 75.5841C44.3095 73.3825 44.7714 71.007 45.5842 68.4577C45.8125 67.7409 46.0859 66.5249 46.0798 66.0801C46.0738 65.6353 46.2107 63.9713 46.2398 63.5201C46.269 63.0689 46.3063 62.6678 46.4386 62.1153C46.6071 61.4092 47.0071 60.7169 47.6386 60.0385C48.1207 60.1558 48.5741 59.999 48.9986 59.5681C49.0583 59.5084 49.1298 59.4785 49.213 59.4785H49.3698C49.4786 59.4785 49.5735 59.4433 49.6546 59.3729C49.9405 59.1212 50.2679 58.9441 50.637 58.8417C50.7376 58.8144 50.8293 58.7603 50.9026 58.6849C50.6381 58.7169 51.0946 58.4908 50.9026 58.6849L47.8082 60.4289C47.7719 60.4481 47.7559 60.479 47.7602 60.5217C47.7623 60.5686 47.7751 60.5889 47.7986 60.5825C48.3746 60.4225 48.1538 60.7212 48.6786 60.3713C48.7874 60.2988 49.5917 59.7708 49.549 59.8945C49.549 59.8945 50.3522 59.8166 50.7234 59.5649C51.389 59.1126 52.0205 58.7308 52.6178 58.4193C53.0295 58.206 53.4189 57.9788 53.7858 57.7377C54.2039 57.4646 54.6274 57.2289 55.0562 57.0305C55.5405 56.8065 56.0599 56.5398 56.6146 56.2305C58.4557 55.2044 60.2925 54.1814 62.125 53.1617C62.477 52.9654 62.8375 52.7724 63.2066 52.5825C63.5735 52.3905 63.9202 52.1686 64.2466 51.9169C64.6398 52.4801 64.5058 52.9622 64.1538 53.4401C63.8317 53.8817 63.4615 54.2817 63.0434 54.6401C61.7741 55.7302 60.4461 56.7937 59.0594 57.8305L56.4194 59.6481C55.9949 59.9382 56.0397 60.0812 56.5538 60.0769C60.3362 60.047 63.4786 58.5505 65.981 55.5873C67.3847 53.9254 68.6765 51.7302 69.8562 49.0017C71.0018 48.7969 71.9287 48.367 72.637 47.7121C73.4157 46.9932 74.1026 46.6828 74.6978 46.7809Z" fill="white"/>
<path d="M64.2466 51.9169C63.9202 52.1686 63.5735 52.3905 63.2066 52.5825C62.8375 52.7724 62.477 52.9654 62.125 53.1617C60.2925 54.1814 58.4557 55.2044 56.6146 56.2305C56.0599 56.5398 55.5405 56.8065 55.0562 57.0305C54.6274 57.2289 54.2039 57.4646 53.7858 57.7377C53.4189 57.9788 53.0295 58.206 52.6178 58.4193C52.0205 58.7308 51.389 59.1126 50.7234 59.5649C50.3522 59.8166 49.549 59.8945 49.549 59.8945C49.5917 59.7708 48.7874 60.2988 48.6786 60.3713C48.1538 60.7212 48.3746 60.4225 47.7986 60.5825C47.7751 60.5889 47.7623 60.5686 47.7602 60.5217C47.7559 60.479 47.7719 60.4481 47.8082 60.4289L50.9026 58.6849C51.3037 58.3009 51.7538 58.0054 52.253 57.7985C52.4279 57.7281 53.2727 57.295 53.4178 57.1777C53.5245 57.0881 53.6471 57.0134 53.7858 56.9537C54.4685 56.655 55.1543 56.3606 55.8434 56.0705C55.9543 56.0236 56.0439 55.95 56.1122 55.8497C56.2061 55.7089 56.3426 55.6172 56.5218 55.5745C56.6754 55.5382 56.8098 55.4668 56.925 55.3601C57.5565 54.7777 58.2381 54.3532 58.9698 54.0865C59.0722 54.0502 59.1586 53.9916 59.229 53.9105C59.3719 53.7526 59.549 53.6524 59.7602 53.6097C59.8738 53.5887 59.9823 53.5405 60.077 53.4689C60.4887 53.151 60.925 52.8812 61.3858 52.6593C61.4818 52.6124 61.5661 52.5484 61.6386 52.4673C61.7709 52.318 61.7815 52.206 61.6706 52.1313C62.4002 51.8113 63.645 51.2417 64.2466 51.9169Z" fill="white"/>
<path d="M61.6706 52.1313C61.7815 52.206 61.7709 52.318 61.6386 52.4673C61.5661 52.5484 61.4818 52.6124 61.3858 52.6593C60.925 52.8812 60.4887 53.151 60.077 53.4689C59.9823 53.5405 59.8738 53.5887 59.7602 53.6097C59.549 53.6524 59.3719 53.7526 59.229 53.9105C59.1586 53.9916 59.0722 54.0502 58.9698 54.0865C58.2381 54.3532 57.5565 54.7777 56.925 55.3601C56.8098 55.4668 56.6754 55.5382 56.5218 55.5745C56.3426 55.6172 56.2061 55.7089 56.1122 55.8497C56.0439 55.95 55.9543 56.0236 55.8434 56.0705C55.1543 56.3606 54.4685 56.655 53.7858 56.9537C53.6471 57.0134 53.5245 57.0881 53.4178 57.1777C53.2727 57.295 52.4279 57.7281 52.253 57.7985C51.7538 58.0054 51.3037 58.3009 50.9026 58.6849C50.6381 58.7169 51.0946 58.4908 50.9026 58.6849C50.8293 58.7603 50.7376 58.8144 50.637 58.8417C50.2679 58.9441 49.9405 59.1212 49.6546 59.3729C49.5735 59.4433 49.4786 59.4785 49.3698 59.4785H49.213C49.1298 59.4785 49.0583 59.5084 48.9986 59.5681C48.5741 59.999 48.1207 60.1558 47.6386 60.0385C48.3725 59.3473 49.2567 58.6849 50.2914 58.0513C54.1058 55.7196 57.8989 53.7462 61.6706 52.1313Z" fill="white"/>
<path fill-rule="evenodd" clip-rule="evenodd" d="M56.1178 33.7343C55.9999 34.281 55.2759 36.3085 55.0209 36.8062C54.2892 38.21 53.4433 39.4729 52.4833 40.595C52.4833 40.595 50.5599 42.2399 49.0051 43.1231C44.6947 45.1167 40.0707 44.9279 35.6611 43.4911C33.8755 42.9087 32.2584 42.0937 30.8099 41.0463C26.7075 38.0809 24.3075 33.922 23.6099 28.5695H23.6103C23.6094 26.3999 23.8586 24.4991 23.8586 24.4991C24.3045 22.0991 25.0629 20.002 26.1338 18.2079C28.3706 14.4639 32.4986 12.4255 36.7002 11.9359C41.5706 11.3684 46.0517 12.257 50.1434 14.6015C52.5242 15.9647 54.2458 18.4383 55.257 21.0815C56.7888 25.0772 57.0757 29.2948 56.1178 33.7343ZM34.6632 26.2626C36.6814 26.2626 38.3174 24.6099 38.3174 22.5712C38.3174 20.5326 36.6814 18.8799 34.6632 18.8799C32.6451 18.8799 31.009 20.5326 31.009 22.5712C31.009 24.6099 32.6451 26.2626 34.6632 26.2626ZM33.9721 31.7311L33.1759 30.9609C33.167 30.9524 33.1554 30.9403 33.1415 30.9256C33.0612 30.8412 32.9018 30.6738 32.7217 30.6445C32.5102 30.6102 30.7784 30.176 29.8736 29.7444C29.1241 29.3879 28.3504 28.9897 27.5524 28.5499C26.701 28.0348 25.9086 27.402 25.1753 26.6514C24.6687 26.1315 24.4025 25.6671 24.9205 25.2583C25.1704 25.0592 25.7734 25.1697 26.2022 25.2484L26.2564 25.2583C26.5903 25.3192 26.9367 25.4585 27.2641 25.5901C27.4637 25.6703 27.6562 25.7477 27.8346 25.8028C28.7547 26.2269 29.6406 26.4617 30.5406 26.7003C31.0529 26.8361 31.5698 26.9731 32.1001 27.1469C34.3533 27.886 36.2998 27.438 37.9395 25.8028C39.1895 24.557 40.1618 22.9663 41.1064 21.421L41.1064 21.4209C41.3985 20.9431 41.688 20.4695 41.9822 20.0119C42.1376 19.7682 42.3318 19.5671 42.5649 19.4085C42.6248 19.3676 42.6936 19.3421 42.7654 19.334C42.8372 19.3259 42.9099 19.3355 42.9773 19.3621C43.0446 19.3886 43.1045 19.4312 43.152 19.4863C43.1994 19.5414 43.2329 19.6073 43.2496 19.6783C43.3929 20.289 43.371 20.9488 43.2205 21.5571C42.9388 22.6935 42.5778 23.8471 42.1376 25.0179C41.885 25.69 41.669 26.4381 41.5354 27.1322C41.363 28.0225 41.8632 28.6406 42.662 29.2759C43.4883 29.8471 44.5904 30.192 45.5969 30.5071C45.7459 30.5537 45.8927 30.5997 46.0363 30.6457C48.1551 31.3226 50.3096 31.8941 52.4997 32.3601C53.0323 32.504 53.5721 32.6618 54.1192 32.8335C54.5465 32.9692 55.0668 33.2284 55.1882 33.351C55.3096 33.4737 55.431 33.5963 55.3096 33.8416C55.1882 34.0869 54.217 34.3321 54.217 34.3321C54.217 34.3321 52.8971 34.6314 51.6669 34.7148C50.9692 34.7687 50.529 34.7916 50.346 34.7834C47.5611 34.6584 45.2472 34.0893 42.7026 33.1009C42.5456 33.0404 42.3902 33.0273 42.2364 33.0616C42.2044 33.0689 42.1745 33.0836 42.1492 33.1046C42.1238 33.1255 42.1036 33.1522 42.0901 33.1824C42.0767 33.2126 42.0704 33.2456 42.0718 33.2787C42.0732 33.3118 42.0821 33.3441 42.098 33.3731C42.3198 33.7803 42.6257 34.1122 43.0158 34.3689C43.4027 34.6224 43.8324 34.8595 44.3051 35.0802C46.1067 35.9191 47.9188 36.7653 49.7415 37.6188C50.1235 37.8069 50.5047 38.0235 50.8851 38.2688C50.8877 38.2715 50.9056 38.2822 50.9347 38.2997C51.1244 38.4137 51.7889 38.8131 51.7889 39.115C51.7889 39.4145 51.4294 39.471 50.9809 39.5414C50.9082 39.5528 50.8331 39.5646 50.7568 39.5779C50.2104 39.6729 48.3418 39.7496 47.5399 39.5779C46.738 39.4062 46.0112 39.2155 45.5045 39.0635C43.6091 38.4961 41.8277 37.6728 40.1605 36.5936C37.9882 35.189 35.7381 33.6671 33.9721 31.7311Z" fill="white"/>
</svg>
