<svg width="60" height="60" viewBox="0 0 60 60" fill="none" xmlns="http://www.w3.org/2000/svg">
<path d="M28.001 7.71144C27.0554 7.37544 26.561 6.74904 26.381 5.79144C26.069 4.10984 26.0506 2.63624 26.3258 1.37064C26.7146 -0.402957 28.649 0.151443 29.0282 1.51944C29.4506 3.04584 29.6514 4.57944 29.6306 6.12024C29.6234 6.58344 29.489 7.17864 29.105 7.49064C28.7546 7.77384 28.3866 7.84744 28.001 7.71144Z" fill="white"/>
<path d="M22.6536 7.644C22.7808 8.3592 22.6272 9.1488 22.1472 9.708C21.768 10.1496 20.7528 9.828 20.3352 9.6C18.4568 8.5744 17.0616 7.1432 16.1496 5.3064C15.0696 3.132 16.5072 0.7536 18.9576 2.508C20.6712 3.7344 22.284 5.5632 22.6536 7.644Z" fill="white"/>
<path d="M34.8623 8.54656C34.1207 6.76336 35.8607 3.34816 37.5527 2.72176C38.2559 2.46016 38.9015 3.14656 39.0815 3.75136C39.3263 4.57456 39.2255 5.43376 39.0551 6.25936C38.7935 7.52896 37.7279 8.94736 36.3527 9.28336C35.6359 9.45776 35.1391 9.21216 34.8623 8.54656Z" fill="white"/>
<path d="M44.4895 12.0659C45.8981 11.0574 46.7336 9.81179 46.3555 9.28369C45.9774 8.75559 44.529 9.14502 43.1204 10.1535C41.7117 11.162 40.8763 12.4076 41.2544 12.9357C41.6325 13.4638 43.0809 13.0744 44.4895 12.0659Z" fill="white"/>
<path d="M13.5903 14.2011C15.4222 15.1225 17.2234 15.2406 17.6135 14.465C18.0036 13.6893 16.8348 12.3137 15.0029 11.3924C13.1711 10.471 11.3698 10.3529 10.9797 11.1285C10.5896 11.9041 11.7584 13.2798 13.5903 14.2011Z" fill="white"/>
<path d="M46.8035 18.628C48.2335 18.2395 49.2452 17.3811 49.0631 16.7109C48.881 16.0406 47.5741 15.8123 46.144 16.2008C44.714 16.5893 43.7023 17.4476 43.8844 18.1179C44.0665 18.7882 45.3734 19.0165 46.8035 18.628Z" fill="white"/>
<path d="M46.3928 24.6261C47.7395 24.8058 48.8995 24.4391 48.9839 23.8072C49.0682 23.1752 48.0448 22.5172 46.6982 22.3376C45.3515 22.1579 44.1914 22.5245 44.1071 23.1565C44.0228 23.7884 45.0461 24.4464 46.3928 24.6261Z" fill="white"/>
<path d="M13.4664 39.9482L9.78239 42.245C7.52159 39.0562 5.79119 35.733 4.59119 32.2754C4.29519 31.4242 4.16559 30.6082 4.20239 29.8274C4.20601 29.7601 4.22579 29.6946 4.26004 29.6365C4.2943 29.5785 4.34202 29.5295 4.39919 29.4938C5.41679 28.8578 7.34879 31.6538 7.76639 32.3402C9.01919 34.3946 10.1848 36.1562 11.2632 37.625C11.8312 38.3978 12.5656 39.1722 13.4664 39.9482Z" fill="white"/>
<path d="M30.72 45.8402C30.7489 46.0561 30.84 46.6802 30.84 46.9202C30.84 47.1602 31.0016 47.8258 31.0848 48.0626C31.5864 49.5026 33.7992 55.5122 30.9816 55.7426C29.412 55.8698 27.4032 54.5834 26.1216 53.6138C26.0915 53.5913 26.0666 53.5622 26.0488 53.5286C26.0309 53.495 26.0206 53.4577 26.0184 53.4194C25.9608 52.4242 25.8608 51.493 25.7184 50.6258C25.5048 49.3322 24.1464 48.6794 22.944 48.377C21.3024 47.9666 19.596 47.8226 17.9088 47.7266C15.7008 47.6018 14.1264 47.057 12.6024 45.5402C11.396 44.3386 10.456 43.2402 9.78239 42.245L13.4664 39.9482C15.26 41.593 17.3696 42.5258 19.7952 42.7466C20.4864 42.809 21.2176 42.733 21.9888 42.5186C22.0196 42.51 22.0481 42.4945 22.0721 42.4732C22.0961 42.452 22.1149 42.4255 22.1272 42.3959C22.1394 42.3663 22.1448 42.3343 22.1429 42.3024C22.1409 42.2704 22.1317 42.2393 22.116 42.2114C21.884 41.7954 21.5584 41.493 21.1392 41.3042C21.1392 41.3042 17.9305 38.7001 17.76 38.5202C17.5896 38.3402 17.1712 37.9746 16.968 37.6994C16.7232 37.3682 16.692 36.941 17.04 36.6746C17.5136 36.3098 18.0848 36.293 18.7536 36.6242C21.736 38.1026 24.732 39.8314 27.7416 41.8106C28.7592 42.481 29.4528 43.021 29.8224 43.4306C30.2704 43.9298 30.5328 44.4322 30.6096 44.9378C30.6784 45.4034 30.6912 45.6242 30.72 45.8402Z" fill="white"/>
<path d="M56.3186 33.7586C56.1506 33.7794 55.9906 33.8514 55.8386 33.9746C55.7794 34.0242 55.7113 34.045 55.6345 34.037C55.5401 34.0274 55.4729 34.0562 55.4329 34.1234C54.9625 34.3266 54.513 34.5642 54.0842 34.8362C53.9306 34.9338 53.7857 35.0002 53.6497 35.0354C53.4929 35.0754 53.3354 35.1058 53.177 35.1266C53.6634 33.8978 54.2889 32.7746 55.0537 31.757C55.2433 31.505 55.5962 31.2914 55.8578 31.1858C55.9271 31.1575 56.0025 31.1475 56.0768 31.1566C56.1512 31.1657 56.222 31.1936 56.2828 31.2377C56.3435 31.2819 56.392 31.3408 56.4239 31.409C56.4558 31.4772 56.4699 31.5523 56.465 31.6274C56.465 31.6274 56.3999 33.6002 56.3186 33.7586Z" fill="white"/>
<path d="M56.3186 33.7586C56.2033 34.2769 56.1386 34.5675 56.0233 35.0858C55.5769 35.0122 55.0618 35.245 54.4778 35.7842C53.9466 36.2754 53.2514 36.5978 52.3922 36.7514L52.9394 35.5706C53.3377 35.4714 53.7121 35.3122 54.0625 35.093C54.3073 34.9394 54.5585 34.809 54.8161 34.7018C55.0801 34.5914 55.3338 34.4554 55.577 34.2938C55.5834 34.289 55.5873 34.2826 55.5889 34.2746C55.5921 34.2682 55.5945 34.261 55.5961 34.253C55.6009 34.2226 55.5906 34.2162 55.565 34.2338C55.4514 34.3074 55.3274 34.3474 55.1929 34.3538C55.1253 34.3585 55.0599 34.3808 55.0033 34.4186C54.8193 34.5418 54.625 34.6458 54.4201 34.7306C54.1658 34.8362 53.9417 34.9882 53.7481 35.1866C53.6873 35.2474 53.6145 35.2826 53.5297 35.2922C53.3617 35.3114 53.2226 35.2906 53.1122 35.2298L53.177 35.1266C53.3354 35.1058 53.4929 35.0754 53.6497 35.0354C53.7857 35.0002 53.9306 34.9338 54.0842 34.8362C54.513 34.5642 54.9625 34.3266 55.4329 34.1234C55.4729 34.0562 55.5401 34.0274 55.6345 34.037C55.7113 34.045 55.7794 34.0242 55.8386 33.9746C55.9906 33.8514 56.1506 33.7794 56.3186 33.7586Z" fill="white"/>
<path d="M52.9394 35.5706L53.1122 35.2298C53.2226 35.2906 53.3617 35.3114 53.5297 35.2922C53.6145 35.2826 53.6873 35.2474 53.7481 35.1866C53.9417 34.9882 54.1658 34.8362 54.4201 34.7306C54.625 34.6458 54.8193 34.5418 55.0033 34.4186C55.0599 34.3808 55.1253 34.3585 55.1929 34.3538C55.3274 34.3474 55.4514 34.3074 55.565 34.2338C55.5906 34.2162 55.6009 34.2226 55.5961 34.253C55.5945 34.261 55.5921 34.2682 55.5889 34.2746C55.5873 34.2826 55.5834 34.289 55.577 34.2938C55.3338 34.4554 55.0801 34.5914 54.8161 34.7018C54.5585 34.809 54.3073 34.9394 54.0625 35.093C53.7121 35.3122 53.3377 35.4714 52.9394 35.5706Z" fill="white"/>
<path d="M56.0233 35.0858C55.1833 38.2682 53.9801 41.3042 52.4137 44.1938C51.7769 45.3682 51.0161 46.4874 50.1313 47.5514C49.3057 48.5466 48.2569 49.1674 46.9849 49.4138C46.1001 49.5834 45.1689 49.753 44.1913 49.9226C42.6481 50.189 39.9721 50.8178 39.7057 52.7186C39.5073 54.1554 39.5145 55.4394 39.7273 56.5706C39.7339 56.6066 39.7312 56.6436 39.7194 56.6781C39.7076 56.7125 39.6872 56.7433 39.6601 56.7674C38.0953 58.1594 32.8633 62.3018 33.1489 56.6882C33.2321 55.037 33.5785 53.2554 34.1881 51.3434C34.3593 50.8058 34.5644 49.8938 34.5599 49.5602C34.5553 49.2266 34.658 47.9786 34.6799 47.6402C34.7017 47.3018 34.7297 47.001 34.8289 46.5866C34.9553 46.057 35.2553 45.5378 35.7289 45.029C36.0905 45.117 36.4305 44.9994 36.7489 44.6762C36.7937 44.6314 36.8473 44.609 36.9097 44.609H37.0273C37.1089 44.609 37.1801 44.5826 37.2409 44.5298C37.4553 44.341 37.7009 44.2082 37.9777 44.1314C38.0532 44.1109 38.122 44.0703 38.1769 44.0138C37.9785 44.0378 38.321 43.8682 38.1769 44.0138L35.8561 45.3218C35.8289 45.3362 35.8169 45.3594 35.8201 45.3914C35.8217 45.4266 35.8313 45.4418 35.8489 45.437C36.2809 45.317 36.1153 45.541 36.5089 45.2786C36.5905 45.2242 37.1937 44.8282 37.1617 44.921C37.1617 44.921 37.7641 44.8626 38.0425 44.6738C38.5417 44.3346 39.0153 44.0482 39.4633 43.8146C39.7721 43.6546 40.0641 43.4842 40.3393 43.3034C40.6529 43.0986 40.9705 42.9218 41.2921 42.773C41.6553 42.605 42.0449 42.405 42.4609 42.173C43.8417 41.4034 45.2193 40.6362 46.5937 39.8714C46.8577 39.7242 47.1281 39.5794 47.4049 39.437C47.6801 39.293 47.9401 39.1266 48.1849 38.9378C48.4799 39.3602 48.3793 39.7218 48.1153 40.0802C47.8737 40.4114 47.5961 40.7114 47.2825 40.9802C46.3305 41.7978 45.3345 42.5954 44.2945 43.373L42.3145 44.7362C41.9961 44.9538 42.0297 45.061 42.4153 45.0578C45.2521 45.0354 47.6089 43.913 49.4857 41.6906C50.5385 40.4442 51.5074 38.7978 52.3922 36.7514C53.2514 36.5978 53.9466 36.2754 54.4778 35.7842C55.0618 35.245 55.5769 35.0122 56.0233 35.0858Z" fill="white"/>
<path d="M48.1849 38.9378C47.9401 39.1266 47.6801 39.293 47.4049 39.437C47.1281 39.5794 46.8577 39.7242 46.5937 39.8714C45.2193 40.6362 43.8417 41.4034 42.4609 42.173C42.0449 42.405 41.6553 42.605 41.2921 42.773C40.9705 42.9218 40.6529 43.0986 40.3393 43.3034C40.0641 43.4842 39.7721 43.6546 39.4633 43.8146C39.0153 44.0482 38.5417 44.3346 38.0425 44.6738C37.7641 44.8626 37.1617 44.921 37.1617 44.921C37.1937 44.8282 36.5905 45.2242 36.5089 45.2786C36.1153 45.541 36.2809 45.317 35.8489 45.437C35.8313 45.4418 35.8217 45.4266 35.8201 45.3914C35.8169 45.3594 35.8289 45.3362 35.8561 45.3218L38.1769 44.0138C38.4777 43.7258 38.8153 43.5042 39.1897 43.349C39.3209 43.2962 39.9545 42.9714 40.0633 42.8834C40.1433 42.8162 40.2354 42.7602 40.3394 42.7154C40.8514 42.4914 41.3657 42.2706 41.8825 42.053C41.9657 42.0178 42.033 41.9626 42.0842 41.8874C42.1546 41.7818 42.257 41.713 42.3914 41.681C42.5066 41.6538 42.6073 41.6002 42.6937 41.5202C43.1673 41.0834 43.6785 40.765 44.2273 40.565C44.3041 40.5378 44.3689 40.4938 44.4217 40.433C44.5289 40.3146 44.6617 40.2394 44.8201 40.2074C44.9054 40.1916 44.9867 40.1555 45.0578 40.1018C45.3666 39.8634 45.6938 39.661 46.0394 39.4946C46.1114 39.4594 46.1745 39.4114 46.2289 39.3506C46.3281 39.2386 46.3362 39.1546 46.2529 39.0986C46.8001 38.8586 47.7337 38.4314 48.1849 38.9378Z" fill="white"/>
<path d="M46.2529 39.0986C46.3362 39.1546 46.3281 39.2386 46.2289 39.3506C46.1745 39.4114 46.1114 39.4594 46.0394 39.4946C45.6938 39.661 45.3666 39.8634 45.0578 40.1018C44.9867 40.1555 44.9054 40.1916 44.8201 40.2074C44.6617 40.2394 44.5289 40.3146 44.4217 40.433C44.3689 40.4938 44.3041 40.5378 44.2273 40.565C43.6785 40.765 43.1673 41.0834 42.6937 41.5202C42.6073 41.6002 42.5066 41.6538 42.3914 41.681C42.257 41.713 42.1546 41.7818 42.0842 41.8874C42.033 41.9626 41.9657 42.0178 41.8825 42.053C41.3657 42.2706 40.8514 42.4914 40.3394 42.7154C40.2354 42.7602 40.1433 42.8162 40.0633 42.8834C39.9545 42.9714 39.3209 43.2962 39.1897 43.349C38.8153 43.5042 38.4777 43.7258 38.1769 44.0138C37.9785 44.0378 38.321 43.8682 38.1769 44.0138C38.122 44.0703 38.0532 44.1109 37.9777 44.1314C37.7009 44.2082 37.4553 44.341 37.2409 44.5298C37.1801 44.5826 37.1089 44.609 37.0273 44.609H36.9097C36.8473 44.609 36.7937 44.6314 36.7489 44.6762C36.4305 44.9994 36.0905 45.117 35.7289 45.029C36.2793 44.5106 36.9426 44.0138 37.7186 43.5386C40.5794 41.7898 43.4242 40.3098 46.2529 39.0986Z" fill="white"/>
<path fill-rule="evenodd" clip-rule="evenodd" d="M42.0885 25.3008C42 25.7108 41.457 27.2315 41.2658 27.6048C40.717 28.6576 40.0826 29.6048 39.3626 30.4464C39.3626 30.4464 37.92 31.68 36.7539 32.3424C33.5211 33.8376 30.0531 33.696 26.7459 32.6184C25.4067 32.1816 24.1939 31.5704 23.1075 30.7848C20.0307 28.5608 18.2307 25.4416 17.7075 21.4272H17.7079C17.7071 19.8 17.8941 18.3744 17.8941 18.3744C18.2285 16.5744 18.7973 15.0016 19.6005 13.656C21.2781 10.848 24.3741 9.31924 27.5253 8.95204C31.1781 8.52644 34.5389 9.19284 37.6077 10.9512C39.3933 11.9736 40.6845 13.8288 41.4429 15.8112C42.5917 18.808 42.8069 21.9712 42.0885 25.3008ZM25.9975 19.6971C27.5112 19.6971 28.7382 18.4576 28.7382 16.9286C28.7382 15.3995 27.5112 14.16 25.9975 14.16C24.4839 14.16 23.2569 15.3995 23.2569 16.9286C23.2569 18.4576 24.4839 19.6971 25.9975 19.6971ZM25.4792 23.7984L24.8821 23.2208C24.8754 23.2144 24.8667 23.2053 24.8562 23.1943C24.796 23.131 24.6764 23.0054 24.5414 22.9835C24.3828 22.9577 23.0839 22.6321 22.4053 22.3084C21.8432 22.041 21.2629 21.7424 20.6644 21.4125C20.0258 21.0262 19.4316 20.5516 18.8816 19.9887C18.5016 19.5987 18.302 19.2504 18.6905 18.9438C18.8779 18.7945 19.3302 18.8774 19.6518 18.9364L19.6924 18.9438C19.9428 18.9896 20.2026 19.094 20.4482 19.1927L20.4482 19.1927C20.5979 19.2528 20.7423 19.3109 20.8761 19.3522C21.5661 19.6703 22.2306 19.8464 22.9056 20.0253L22.9056 20.0253C23.2898 20.1272 23.6775 20.2299 24.0752 20.3603C25.7651 20.9146 27.2249 20.5786 28.4547 19.3522C29.3922 18.4179 30.1215 17.2248 30.8299 16.0658C31.049 15.7074 31.2661 15.3523 31.4867 15.009C31.6033 14.8263 31.749 14.6755 31.9238 14.5565C31.9687 14.5259 32.0203 14.5067 32.0742 14.5006C32.1281 14.4945 32.1826 14.5018 32.2331 14.5217C32.2836 14.5416 32.3285 14.5735 32.3641 14.6148C32.3997 14.6562 32.4248 14.7056 32.4373 14.7588C32.5448 15.2169 32.5284 15.7117 32.4155 16.1679C32.2042 17.0203 31.9335 17.8855 31.6033 18.7636C31.4139 19.2676 31.2518 19.8287 31.1517 20.3493C31.0224 21.017 31.3975 21.4806 31.9966 21.957C32.6163 22.3854 33.4429 22.6442 34.1978 22.8805C34.3095 22.9154 34.4197 22.9499 34.5273 22.9844C36.1165 23.4921 37.7323 23.9207 39.3749 24.2702C39.7743 24.3781 40.1792 24.4965 40.5895 24.6253C40.91 24.727 41.3002 24.9214 41.3912 25.0134C41.4823 25.1054 41.5734 25.1974 41.4823 25.3813C41.3913 25.5653 40.6628 25.7492 40.6628 25.7492C40.6628 25.7492 39.6729 25.9736 38.7503 26.0362C38.227 26.0767 37.8968 26.0938 37.7597 26.0877C35.6709 25.9939 33.9355 25.5671 32.0271 24.8258C31.9093 24.7804 31.7928 24.7706 31.6774 24.7963C31.6534 24.8018 31.631 24.8128 31.612 24.8286C31.5929 24.8443 31.5778 24.8643 31.5677 24.8869C31.5576 24.9096 31.5529 24.9343 31.554 24.9592C31.555 24.984 31.5617 25.0082 31.5736 25.03C31.74 25.3353 31.9694 25.5843 32.262 25.7768C32.5521 25.9669 32.8745 26.1447 33.2289 26.3103C34.5801 26.9394 35.9392 27.5741 37.3062 28.2142C37.5927 28.3553 37.8786 28.5178 38.1639 28.7017C38.1659 28.7037 38.1793 28.7118 38.2011 28.7249C38.3434 28.8104 38.8418 29.11 38.8418 29.3364C38.8418 29.561 38.5722 29.6033 38.2358 29.6562L38.2357 29.6562C38.1812 29.6648 38.1249 29.6736 38.0678 29.6835C37.6579 29.7548 36.2565 29.8123 35.655 29.6835C35.0536 29.5548 34.5085 29.4118 34.1285 29.2977C32.7069 28.8722 31.3709 28.2547 30.1205 27.4453C28.4913 26.3918 26.8037 25.2505 25.4792 23.7984Z" fill="white"/>
</svg>
