<svg width="938" height="721" viewBox="0 0 938 721" fill="none" xmlns="http://www.w3.org/2000/svg">
<g filter="url(#filter0_ii_1153_4432)">
<path d="M481.133 14H323M772.333 707H884C906.091 707 924 689.091 924 667V54C924 31.9086 906.091 14 884 14H660.667C638.575 14 620.667 31.9086 620.667 54V135M778 130V205.5C778 227.591 760.091 245.5 738 245.5H660.667C638.575 245.5 620.667 227.591 620.667 205.5V135M620.667 135H521.133C499.042 135 481.133 152.909 481.133 175V205.5C481.133 227.591 463.225 245.5 441.133 245.5H170.5M170.5 245.5V135M170.5 245.5V321C170.5 343.091 188.409 361 210.5 361H283C305.091 361 323 378.909 323 401V549C323 571.091 305.091 589 283 589H170.5M14 474V667C14 689.091 31.9087 707 54 707H586.569C608.725 707 626.66 688.991 626.569 666.836L626.25 589M14 474V54C14 31.9086 31.9086 14 54 14H323M14 474H163.5M474.5 361V549C474.5 571.091 492.409 589 514.5 589H626.25M620.667 470.5V401C620.667 378.909 638.575 361 660.667 361H738C760.091 361 778 378.909 778 401V549C778 571.091 760.091 589 738 589H626.25M323 14V135" stroke="#CEA2EB" stroke-width="28" stroke-linecap="round" stroke-linejoin="round"/>
</g>
<defs>
<filter id="filter0_ii_1153_4432" x="-4" y="-4" width="946" height="729" filterUnits="userSpaceOnUse" color-interpolation-filters="sRGB">
<feFlood flood-opacity="0" result="BackgroundImageFix"/>
<feBlend mode="normal" in="SourceGraphic" in2="BackgroundImageFix" result="shape"/>
<feColorMatrix in="SourceAlpha" type="matrix" values="0 0 0 0 0 0 0 0 0 0 0 0 0 0 0 0 0 0 127 0" result="hardAlpha"/>
<feOffset dx="6" dy="6"/>
<feGaussianBlur stdDeviation="2"/>
<feComposite in2="hardAlpha" operator="arithmetic" k2="-1" k3="1"/>
<feColorMatrix type="matrix" values="0 0 0 0 1 0 0 0 0 1 0 0 0 0 1 0 0 0 0.6 0"/>
<feBlend mode="normal" in2="shape" result="effect1_innerShadow_1153_4432"/>
<feColorMatrix in="SourceAlpha" type="matrix" values="0 0 0 0 0 0 0 0 0 0 0 0 0 0 0 0 0 0 127 0" result="hardAlpha"/>
<feOffset dx="-6" dy="-6"/>
<feGaussianBlur stdDeviation="2"/>
<feComposite in2="hardAlpha" operator="arithmetic" k2="-1" k3="1"/>
<feColorMatrix type="matrix" values="0 0 0 0 0.345 0 0 0 0 0.186875 0 0 0 0 0.575 0 0 0 0.4 0"/>
<feBlend mode="normal" in2="effect1_innerShadow_1153_4432" result="effect2_innerShadow_1153_4432"/>
</filter>
</defs>
</svg>
