<svg width="60" height="47" viewBox="0 0 60 47" fill="none" xmlns="http://www.w3.org/2000/svg">
<g filter="url(#filter0_dd_574_509)">
<path d="M30.566 5.29782L54.3146 21.7608C54.5264 21.9078 54.6991 22.1016 54.8183 22.326C54.9374 22.5505 54.9997 22.7993 55 23.0517V23.0555C54.9995 23.3089 54.9365 23.5585 54.8164 23.7835C54.6963 24.0086 54.5225 24.2026 54.3094 24.3495L30.5608 40.7064C30.3153 40.8755 30.0264 40.9757 29.7259 40.9961C29.4254 41.0165 29.125 40.9563 28.8575 40.822C28.5896 40.6885 28.365 40.486 28.2084 40.2367C28.0518 39.9874 27.9693 39.701 27.97 39.4092V31.7113L6.64006 31.7119C6.4246 31.712 6.21124 31.6709 6.01218 31.5911C5.81312 31.5112 5.63226 31.3941 5.47994 31.2464C5.32762 31.0988 5.20683 30.9235 5.12448 30.7306C5.04213 30.5377 4.99983 30.3309 5 30.1222L5.00065 15.8795C5.00056 15.6707 5.04295 15.464 5.12537 15.271C5.20779 15.0781 5.32864 14.9028 5.48101 14.7552C5.63338 14.6076 5.81429 14.4905 6.01339 14.4106C6.21249 14.3307 6.42588 14.2897 6.64136 14.2898H27.9693V6.58997C27.9693 5.99602 28.3149 5.45073 28.8608 5.1765C29.1289 5.04246 29.4301 4.98285 29.731 5.00426C30.032 5.02567 30.3209 5.12726 30.566 5.29782Z" fill="url(#paint0_radial_574_509)"/>
<path d="M30.2804 5.70822L30.2812 5.70874L54.0296 22.1716L30.2804 5.70822ZM30.2804 5.70822C30.11 5.58965 29.9077 5.51809 29.6956 5.503C29.4837 5.48792 29.2722 5.52995 29.0849 5.62346C28.7006 5.81665 28.4693 6.19347 28.4693 6.58997V14.2898V14.7898H27.9693H6.64136H6.64117C6.48922 14.7897 6.33911 14.8187 6.19953 14.8747C6.05998 14.9306 5.93419 15.0123 5.82895 15.1143L5.48101 14.7552L5.82894 15.1143C5.72374 15.2162 5.64117 15.3364 5.58516 15.4675L5.12537 15.271L5.58516 15.4675C5.52916 15.5985 5.50059 15.7384 5.50065 15.8793V15.8795L5.5 30.1222V30.1226C5.49989 30.2634 5.5284 30.4032 5.58433 30.5343C5.64028 30.6653 5.72279 30.7855 5.82794 30.8874C5.93312 30.9894 6.05886 31.071 6.19837 31.127C6.33789 31.183 6.48796 31.212 6.63987 31.2119H6.64005L27.97 31.2113L28.47 31.2113V31.7113L28.47 39.4092L28.47 39.4103C28.4695 39.6068 28.525 39.8007 28.6318 39.9707C28.7387 40.1409 28.8934 40.2813 29.0805 40.3745L29.0818 40.3751M30.2804 5.70822L29.0818 40.3751M27.97 31.7113H27.47L6.64006 31.7119L27.97 31.7113ZM27.97 31.7113L27.97 32.2113H27.97M27.97 31.7113V32.2113M27.97 32.2113V39.4092V32.2113ZM29.0818 40.3751C29.2689 40.4691 29.4801 40.5117 29.6921 40.4973C29.904 40.4829 30.1064 40.4122 30.2772 40.2946L54.0256 23.9379C54.0257 23.9378 54.0257 23.9378 54.0258 23.9377C54.174 23.8355 54.2934 23.7016 54.3753 23.5481C54.4571 23.3948 54.4996 23.2258 54.5 23.0549V23.052C54.4998 22.8818 54.4578 22.7134 54.3766 22.5605C54.2954 22.4075 54.177 22.2739 54.0298 22.1717L29.0818 40.3751Z" stroke="url(#paint1_linear_574_509)"/>
</g>
<defs>
<filter id="filter0_dd_574_509" x="2" y="3" width="56" height="42" filterUnits="userSpaceOnUse" color-interpolation-filters="sRGB">
<feFlood flood-opacity="0" result="BackgroundImageFix"/>
<feColorMatrix in="SourceAlpha" type="matrix" values="0 0 0 0 0 0 0 0 0 0 0 0 0 0 0 0 0 0 127 0" result="hardAlpha"/>
<feOffset dy="2"/>
<feComposite in2="hardAlpha" operator="out"/>
<feColorMatrix type="matrix" values="0 0 0 0 0.00784314 0 0 0 0 0.372549 0 0 0 0 0.584314 0 0 0 1 0"/>
<feBlend mode="normal" in2="BackgroundImageFix" result="effect1_dropShadow_574_509"/>
<feColorMatrix in="SourceAlpha" type="matrix" values="0 0 0 0 0 0 0 0 0 0 0 0 0 0 0 0 0 0 127 0" result="hardAlpha"/>
<feOffset dy="1"/>
<feGaussianBlur stdDeviation="1.5"/>
<feComposite in2="hardAlpha" operator="out"/>
<feColorMatrix type="matrix" values="0 0 0 0 0.00392157 0 0 0 0 0.619608 0 0 0 0 0.854902 0 0 0 1 0"/>
<feBlend mode="normal" in2="effect1_dropShadow_574_509" result="effect2_dropShadow_574_509"/>
<feBlend mode="normal" in="SourceGraphic" in2="effect2_dropShadow_574_509" result="shape"/>
</filter>
<radialGradient id="paint0_radial_574_509" cx="0" cy="0" r="1" gradientUnits="userSpaceOnUse" gradientTransform="translate(30 -91.6819) rotate(90) scale(140.763 71.7474)">
<stop stop-color="#019EDA"/>
<stop offset="0.796528" stop-color="#019EDA"/>
<stop offset="0.797441" stop-color="#02558E"/>
<stop offset="0.874432" stop-color="#018BB4"/>
<stop offset="0.93156" stop-color="#01A7C7"/>
</radialGradient>
<linearGradient id="paint1_linear_574_509" x1="-0.999976" y1="9.99999" x2="24.9286" y2="55.2406" gradientUnits="userSpaceOnUse">
<stop stop-color="#95DBF6"/>
<stop offset="1" stop-color="#016E9F"/>
</linearGradient>
</defs>
</svg>
