<svg width="32" height="32" viewBox="0 0 32 32" fill="none" xmlns="http://www.w3.org/2000/svg">
<path d="M20 5.33618C22.9 5.35218 25.804 5.48152 26.828 6.50552C28 7.67752 28 9.56285 28 13.3335V21.3335C28 25.1055 28 26.9908 26.828 28.1628C25.6573 29.3335 23.7707 29.3335 20 29.3335H12C8.22933 29.3335 6.34267 29.3335 5.172 28.1628C4 26.9895 4 25.1055 4 21.3335V13.3335C4 9.56285 4 7.67752 5.172 6.50552C6.196 5.48152 9.1 5.35218 12 5.33618" fill="url(#paint0_linear_608_5149)"/>
<path d="M20 5.33618C22.9 5.35218 25.804 5.48152 26.828 6.50552C28 7.67752 28 9.56285 28 13.3335V21.3335C28 25.1055 28 26.9908 26.828 28.1628C25.6573 29.3335 23.7707 29.3335 20 29.3335H12C8.22933 29.3335 6.34267 29.3335 5.172 28.1628C4 26.9895 4 25.1055 4 21.3335V13.3335C4 9.56285 4 7.67752 5.172 6.50552C6.196 5.48152 9.1 5.35218 12 5.33618" stroke="#9382C2" stroke-width="1.5"/>
<path d="M13.9997 18.6667H22.6663H13.9997ZM9.33301 18.6667H9.99967H9.33301ZM9.33301 14H9.99967H9.33301ZM9.33301 23.3333H9.99967H9.33301ZM13.9997 14H22.6663H13.9997ZM13.9997 23.3333H22.6663H13.9997Z" fill="white"/>
<path d="M13.9997 18.6667H22.6663M9.33301 18.6667H9.99967M9.33301 14H9.99967M9.33301 23.3333H9.99967M13.9997 14H22.6663M13.9997 23.3333H22.6663" stroke="#9382C2" stroke-width="1.5" stroke-linecap="round"/>
<path d="M12 4.66675C12 4.13631 12.158 3.62761 12.4393 3.25253C12.7206 2.87746 13.1022 2.66675 13.5 2.66675H18.5C18.8978 2.66675 19.2794 2.87746 19.5607 3.25253C19.842 3.62761 20 4.13631 20 4.66675V6.00008C20 6.53051 19.842 7.03922 19.5607 7.41429C19.2794 7.78937 18.8978 8.00008 18.5 8.00008H13.5C13.1022 8.00008 12.7206 7.78937 12.4393 7.41429C12.158 7.03922 12 6.53051 12 6.00008V4.66675Z" fill="url(#paint1_linear_608_5149)" stroke="#9382C2" stroke-width="1.5"/>
<defs>
<linearGradient id="paint0_linear_608_5149" x1="15.9652" y1="5.33618" x2="15.9819" y2="29.3335" gradientUnits="userSpaceOnUse">
<stop stop-color="#EEDBFD"/>
<stop offset="0.265654" stop-color="#DBDEFD"/>
<stop offset="0.784194" stop-color="#E4D8FC"/>
<stop offset="1" stop-color="#D9B4EA"/>
</linearGradient>
<linearGradient id="paint1_linear_608_5149" x1="15.9884" y1="2.66675" x2="15.9909" y2="8.00009" gradientUnits="userSpaceOnUse">
<stop stop-color="#EEDBFD"/>
<stop offset="0.265654" stop-color="#DBDEFD"/>
<stop offset="0.784194" stop-color="#E4D8FC"/>
<stop offset="1" stop-color="#D9B4EA"/>
</linearGradient>
</defs>
</svg>
