<svg width="146" height="103" viewBox="0 0 146 103" fill="none" xmlns="http://www.w3.org/2000/svg">
<path d="M95 73.0195L46.0372 27.3042C45.2563 26.5752 44.0404 26.5884 43.2757 27.3344L24.37 45.7759C23.5504 46.5754 23.568 47.8984 24.4084 48.6758L41.4762 64.4635C42.2545 65.1834 43.4593 65.1709 44.2225 64.4349L55.3895 53.6667C56.1977 52.8875 56.2062 51.5959 55.4086 50.806L46.0376 41.526C45.2628 40.7587 44.0162 40.7535 43.235 41.5143L37.8628 46.7461" stroke="#D1D0FF" stroke-width="3" stroke-linecap="round"/>
<path d="M95 73.0195L46.0372 27.3042C45.2563 26.5752 44.0404 26.5884 43.2757 27.3344L24.37 45.7759C23.5504 46.5754 23.568 47.8984 24.4084 48.6758L41.4762 64.4635C42.2545 65.1834 43.4593 65.1709 44.2225 64.4349L55.3895 53.6667C56.1977 52.8875 56.2062 51.5959 55.4086 50.806L46.0376 41.526C45.2628 40.7587 44.0162 40.7535 43.235 41.5143L37.8628 46.7461" stroke="#D1D0FF" stroke-width="3" stroke-linecap="round"/>
<path d="M51 74.0195L99.9621 27.4807C100.741 26.74 101.967 26.7479 102.737 27.4987L121.63 45.9283C122.45 46.7277 122.432 48.0507 121.592 48.8281L104.524 64.6158C103.746 65.3357 102.541 65.3232 101.777 64.5873L90.6105 53.8191C89.8023 53.0398 89.7938 51.7482 90.5914 50.9583L99.9624 41.6783C100.737 40.911 101.984 40.9058 102.765 41.6666L108.137 46.8984" stroke="#D1D0FF" stroke-width="3" stroke-linecap="round"/>
<path d="M51 74.0195L99.9621 27.4807C100.741 26.74 101.967 26.7479 102.737 27.4987L121.63 45.9283C122.45 46.7277 122.432 48.0507 121.592 48.8281L104.524 64.6158C103.746 65.3357 102.541 65.3232 101.777 64.5873L90.6105 53.8191C89.8023 53.0398 89.7938 51.7482 90.5914 50.9583L99.9624 41.6783C100.737 40.911 101.984 40.9058 102.765 41.6666L108.137 46.8984" stroke="#D1D0FF" stroke-width="3" stroke-linecap="round"/>
<rect x="72.9707" y="1.12132" width="26.6821" height="26.6821" rx="1.5" transform="rotate(45 72.9707 1.12132)" stroke="#D1D0FF" stroke-width="3"/>
<rect x="72.9707" y="1.12132" width="26.6821" height="26.6821" rx="1.5" transform="rotate(45 72.9707 1.12132)" stroke="#D1D0FF" stroke-width="3"/>
<rect x="73.5" y="51.6409" width="31.6469" height="33.0638" rx="1.5" transform="rotate(45 73.5 51.6409)" stroke="#D1D0FF" stroke-width="3"/>
<rect x="73.5" y="51.6409" width="31.6469" height="33.0638" rx="1.5" transform="rotate(45 73.5 51.6409)" stroke="#D1D0FF" stroke-width="3"/>
<rect x="72.752" y="62.0195" width="15.2051" height="15.2051" rx="2" transform="rotate(45 72.752 62.0195)" fill="#D1D0FF"/>
<rect x="72.752" y="62.0195" width="15.2051" height="15.2051" rx="2" transform="rotate(45 72.752 62.0195)" fill="#D1D0FF"/>
</svg>
