<svg width="146" height="102" viewBox="0 0 146 102" fill="none" xmlns="http://www.w3.org/2000/svg">
<rect x="73.4727" y="24.5" width="7.58147" height="7.58147" rx="1" transform="rotate(46.2015 73.4727 24.5)" fill="#D1D0FF"/>
<rect x="73.4727" y="68.5" width="7.58147" height="7.58147" rx="1" transform="rotate(46.2015 73.4727 68.5)" fill="#D1D0FF"/>
<rect x="95.4727" y="45.5" width="7.58147" height="7.58147" rx="1" transform="rotate(46.2015 95.4727 45.5)" fill="#D1D0FF"/>
<rect x="51.4727" y="45.5" width="7.58147" height="7.58147" rx="1" transform="rotate(46.2015 51.4727 45.5)" fill="#D1D0FF"/>
<path d="M82 51.5L53.0987 21.6664C51.9415 20.4718 51.9769 18.5638 53.1777 17.413L60.8101 10.0986C62.0157 8.94333 63.9325 8.99463 65.0745 10.2128L68.4323 13.7944C69.5716 15.0098 69.5026 16.9207 68.2785 18.0506L64.6849 21.3678C64.3147 21.7095 63.7324 21.6656 63.4177 21.2722V21.2722C62.9201 20.6501 63.4528 19.7421 64.2386 19.8731L65 20" stroke="#D1D0FF" stroke-width="3" stroke-linecap="round"/>
<path d="M73.499 42.5L102.874 73.3171C104.024 74.5233 105.936 74.5614 107.133 73.402L114.721 66.0522C115.92 64.8905 115.94 62.9731 114.765 61.7866L111.311 58.298C110.138 57.1143 108.226 57.1122 107.052 58.2935L103.492 61.8734C103.197 62.17 103.215 62.6546 103.532 62.928V62.928C104.075 63.3967 104.895 62.871 104.696 62.1817L104.499 61.5" stroke="#D1D0FF" stroke-width="3" stroke-linecap="round"/>
<path d="M73.499 60L45.4477 31.0621C44.2931 29.8711 42.3911 29.8431 41.202 30.9996L33.6155 38.3779C32.4185 39.542 32.4024 41.4595 33.5796 42.6436L37.0409 46.1253C38.2154 47.3067 40.1276 47.3049 41.2999 46.1213L44.6536 42.7353C45.0556 42.3295 45.029 41.6679 44.5958 41.2956V41.2956C43.9573 40.7468 42.9692 41.2005 42.9692 42.0424L42.9692 43" stroke="#D1D0FF" stroke-width="3" stroke-linecap="round"/>
<path d="M82.4234 21.4677L81.5 20.6154L82.6973 20.2338C83.3867 20.0141 83.9422 20.8222 83.4902 21.3872C83.2253 21.7184 82.735 21.7554 82.4234 21.4677Z" fill="#D1D0FF"/>
<path d="M65 51L93.8676 21.6668C95.0407 20.4748 95.0126 18.5537 93.8051 17.3965L86.1899 10.0986C84.9843 8.94333 83.0675 8.99463 81.9255 10.2128L78.5677 13.7944C77.4284 15.0098 77.4974 16.9207 78.7215 18.0506L82.4234 21.4677C82.735 21.7554 83.2253 21.7184 83.4902 21.3872V21.3872C83.9422 20.8222 83.3867 20.0141 82.6973 20.2338L81.5 20.6154" stroke="#D1D0FF" stroke-width="3" stroke-linecap="round"/>
<path d="M94.4701 20.4992L43.1798 72.9664C42.0193 74.1535 40.1154 74.1725 38.9315 73.0088L31.3868 65.5925C30.1961 64.422 30.1901 62.5045 31.3736 61.3267L34.8534 57.8635C36.0342 56.6883 37.9463 56.7003 39.1123 57.8901L42.691 61.5419C42.9594 61.8158 42.9392 62.26 42.647 62.5084L42.4288 62.6939C41.9715 63.0827 41.2951 62.6131 41.4995 62.0488V62.0488" stroke="#D1D0FF" stroke-width="3" stroke-linecap="round"/>
<path d="M52.4582 82.5281L102.873 29.2192C104.014 28.0131 105.917 27.9626 107.12 29.1066L114.787 36.3969C115.996 37.5476 116.034 39.4647 114.87 40.662L111.448 44.1823C110.287 45.3769 108.375 45.3965 107.19 44.2262L103.623 40.7056C103.311 40.3975 103.326 39.8893 103.655 39.5997L103.817 39.4574C104.322 39.0139 105.098 39.4824 104.94 40.1355V40.1355" stroke="#D1D0FF" stroke-width="3" stroke-linecap="round"/>
<path d="M104 28.5L53.0874 81.3338C51.9355 82.5292 51.9734 84.4328 53.1719 85.5814L60.8101 92.9014C62.0157 94.0567 63.9325 94.0054 65.0745 92.7872L68.4323 89.2056C69.5716 87.9902 69.5026 86.0793 68.2785 84.9494L64.5662 81.5226C64.2602 81.2402 63.7788 81.2765 63.5186 81.6017V81.6017C63.0717 82.1603 63.6276 82.9575 64.3063 82.7312L65 82.5" stroke="#D1D0FF" stroke-width="3" stroke-linecap="round"/>
<path d="M64.5 51L93.9003 81.3336C95.058 82.5281 95.0228 84.4365 93.8218 85.5875L86.1899 92.9014C84.9843 94.0567 83.0675 94.0054 81.9255 92.7872L78.5677 89.2056C77.4284 87.9902 77.4974 86.0793 78.7215 84.9494L82.3151 81.6322C82.6853 81.2905 83.2676 81.3344 83.5823 81.7278V81.7278C84.0799 82.3499 83.5472 83.2579 82.7614 83.1269L82 83" stroke="#D1D0FF" stroke-width="3" stroke-linecap="round"/>
</svg>
