<svg width="146" height="102" viewBox="0 0 146 102" fill="none" xmlns="http://www.w3.org/2000/svg">
<path d="M7 8H33C33.5523 8 34 8.44772 34 9V33C34 33.5523 33.5523 34 33 34H21" stroke="#D1D0FF" stroke-width="6" stroke-linecap="round"/>
<path d="M24 21.5H11C10.4477 21.5 10 21.9477 10 22.5V45C10 45.5523 10.4477 46 11 46H43.5C44.0523 46 44.5 45.5523 44.5 45V9C44.5 8.44772 44.9477 8 45.5 8H78C78.5523 8 79 8.44772 79 9V33C79 33.5523 78.5523 34 78 34H67" stroke="#D1D0FF" stroke-width="6" stroke-linecap="round"/>
<path d="M69.5 21.5H56C55.4477 21.5 55 21.9477 55 22.5V45C55 45.5523 55.4477 46 56 46H88.5C89.0523 46 89.5 45.5523 89.5 45V9C89.5 8.44772 89.9477 8 90.5 8H124C124.552 8 125 8.44772 125 9V33C125 33.5523 124.552 34 124 34H111.5M114.5 21.5H102C101.448 21.5 101 21.9477 101 22.5V45C101 45.5523 101.448 46 102 46H134.5C135.052 46 135.5 45.5523 135.5 45V9C135.5 8.44772 135.948 8 136.5 8L140.5 8" stroke="#D1D0FF" stroke-width="6" stroke-linecap="round"/>
<path d="M138.5 94.5H112.5C111.948 94.5 111.5 94.0523 111.5 93.5V69.5C111.5 68.9477 111.948 68.5 112.5 68.5H124.5" stroke="#D1D0FF" stroke-width="6" stroke-linecap="round"/>
<path d="M121.5 81H134.5C135.052 81 135.5 80.5523 135.5 80V57.5C135.5 56.9477 135.052 56.5 134.5 56.5H102C101.448 56.5 101 56.9477 101 57.5V93.5C101 94.0523 100.552 94.5 100 94.5H67.5C66.9477 94.5 66.5 94.0523 66.5 93.5V69.5C66.5 68.9477 66.9477 68.5 67.5 68.5H78.5" stroke="#D1D0FF" stroke-width="6" stroke-linecap="round"/>
<path d="M76 81H89.5C90.0523 81 90.5 80.5523 90.5 80V57.5C90.5 56.9477 90.0523 56.5 89.5 56.5H57C56.4477 56.5 56 56.9477 56 57.5V93.5C56 94.0523 55.5523 94.5 55 94.5H21.5C20.9477 94.5 20.5 94.0523 20.5 93.5V69.5C20.5 68.9477 20.9477 68.5 21.5 68.5H34M31 81H43.5C44.0523 81 44.5 80.5523 44.5 80V57.5C44.5 56.9477 44.0523 56.5 43.5 56.5H11C10.4477 56.5 10 56.9477 10 57.5V93.5C10 94.0523 9.55228 94.5 9 94.5L5 94.5" stroke="#D1D0FF" stroke-width="6" stroke-linecap="round"/>
</svg>
